<?xml version="1.0" encoding="UTF-8"?>
<svg version="1.1" xmlns="http://www.w3.org/2000/svg" width="128" height="128">
<path d="M0 0 C3.69464399 0.24288431 5.78534884 1.34195725 8.96484375 3.203125 C9.93164062 3.76 10.8984375 4.316875 11.89453125 4.890625 C12.61898437 5.32375 13.3434375 5.756875 14.08984375 6.203125 C14.08984375 6.863125 14.08984375 7.523125 14.08984375 8.203125 C14.74984375 8.203125 15.40984375 8.203125 16.08984375 8.203125 C21.16216069 17.76806552 21.69083176 25.67915721 21.08984375 36.203125 C23.06984375 36.698125 23.06984375 36.698125 25.08984375 37.203125 C26.55041562 42.7532981 25.75477881 47.78965194 24.08984375 53.203125 C21.95129525 55.3416735 20.95709061 55.62967563 18.08984375 56.203125 C18.23038247 58.82850784 18.37703322 61.45329927 18.52734375 64.078125 C18.56666016 64.82449219 18.60597656 65.57085937 18.64648438 66.33984375 C18.80557999 70.40299364 18.80557999 70.40299364 20.08984375 74.203125 C21.66829851 74.90466045 23.25279012 75.59400444 24.85546875 76.23828125 C27.36980381 77.32401684 29.73564259 78.60195054 32.15234375 79.890625 C40.7605987 84.26621308 49.9328608 87.27015499 59.03369141 90.45043945 C61.08984375 91.203125 61.08984375 91.203125 63.08984375 92.203125 C63.08984375 103.423125 63.08984375 114.643125 63.08984375 126.203125 C22.16984375 126.203125 -18.75015625 126.203125 -60.91015625 126.203125 C-53.19095095 99.18590646 -53.19095095 99.18590646 -45.75390625 94.00390625 C-44.09875 93.26720703 -44.09875 93.26720703 -42.41015625 92.515625 C-41.5130896 92.10437378 -41.5130896 92.10437378 -40.59790039 91.68481445 C-38.71295122 90.82976315 -36.8142999 90.01440941 -34.91015625 89.203125 C-33.62715812 88.63903425 -32.34460259 88.07393572 -31.0625 87.5078125 C-26.04884776 85.31433964 -20.99706358 83.22083684 -15.91015625 81.203125 C-16.17828125 80.15125 -16.44640625 79.099375 -16.72265625 78.015625 C-18.61369224 70.45148105 -20.41915799 62.85691605 -21.91015625 55.203125 C-23.56015625 55.203125 -25.21015625 55.203125 -26.91015625 55.203125 C-27.67475622 51.64579126 -28.18928271 48.1374151 -28.53515625 44.515625 C-28.67824219 43.08669922 -28.67824219 43.08669922 -28.82421875 41.62890625 C-28.91015625 39.203125 -28.91015625 39.203125 -27.91015625 37.203125 C-27.25015625 37.203125 -26.59015625 37.203125 -25.91015625 37.203125 C-26.00554688 36.23632812 -26.1009375 35.26953125 -26.19921875 34.2734375 C-27.80590456 15.40422045 -27.80590456 15.40422045 -22.22265625 8.328125 C-15.49979696 1.4428778 -9.24372929 0.6451999 0 0 Z " fill="#26282C" transform="translate(64.91015625,1.796875)"/>
<path d="M0 0 C3.69464399 0.24288431 5.78534884 1.34195725 8.96484375 3.203125 C9.93164062 3.76 10.8984375 4.316875 11.89453125 4.890625 C12.61898437 5.32375 13.3434375 5.756875 14.08984375 6.203125 C14.08984375 6.863125 14.08984375 7.523125 14.08984375 8.203125 C14.74984375 8.203125 15.40984375 8.203125 16.08984375 8.203125 C21.16216069 17.76806552 21.69083176 25.67915721 21.08984375 36.203125 C22.40984375 36.533125 23.72984375 36.863125 25.08984375 37.203125 C26.55041562 42.7532981 25.75477881 47.78965194 24.08984375 53.203125 C21.95129525 55.3416735 20.95709061 55.62967563 18.08984375 56.203125 C18.23038247 58.82850784 18.37703322 61.45329927 18.52734375 64.078125 C18.56666016 64.82449219 18.60597656 65.57085937 18.64648438 66.33984375 C18.80557999 70.40299364 18.80557999 70.40299364 20.08984375 74.203125 C22.10654202 75.33663034 22.10654202 75.33663034 24.08984375 76.203125 C23.42984375 76.203125 22.76984375 76.203125 22.08984375 76.203125 C22.04859375 77.028125 22.00734375 77.853125 21.96484375 78.703125 C19.73140513 87.63687946 12.66248625 92.65723778 5.08984375 97.203125 C-1.40645498 101.01323793 -7.38764268 102.32375301 -14.91015625 101.203125 C-18.09765625 99.828125 -18.09765625 99.828125 -19.91015625 97.203125 C-20.3017105 93.82729243 -20.20049168 90.58391974 -19.91015625 87.203125 C-17.93015625 86.708125 -17.93015625 86.708125 -15.91015625 86.203125 C-16.62654936 81.01780341 -17.44824878 75.85972785 -18.34765625 70.703125 C-18.46947266 69.98253906 -18.59128906 69.26195313 -18.71679688 68.51953125 C-19.51012963 63.97328239 -20.56790663 59.61918435 -21.91015625 55.203125 C-23.56015625 55.203125 -25.21015625 55.203125 -26.91015625 55.203125 C-27.67475622 51.64579126 -28.18928271 48.1374151 -28.53515625 44.515625 C-28.67824219 43.08669922 -28.67824219 43.08669922 -28.82421875 41.62890625 C-28.91015625 39.203125 -28.91015625 39.203125 -27.91015625 37.203125 C-27.25015625 37.203125 -26.59015625 37.203125 -25.91015625 37.203125 C-26.05324219 35.75292969 -26.05324219 35.75292969 -26.19921875 34.2734375 C-27.80590456 15.40422045 -27.80590456 15.40422045 -22.22265625 8.328125 C-15.49979696 1.4428778 -9.24372929 0.6451999 0 0 Z " fill="#A07B66" transform="translate(64.91015625,1.796875)"/>
<path d="M0 0 C1.00998047 0.02320312 2.01996094 0.04640625 3.06054688 0.0703125 C10.38421731 0.28585865 10.38421731 0.28585865 12.8125 1.5 C12.8125 2.16 12.8125 2.82 12.8125 3.5 C13.4725 3.5 14.1325 3.5 14.8125 3.5 C14.4825 6.8 14.1525 10.1 13.8125 13.5 C10.8425 13.5 7.8725 13.5 4.8125 13.5 C4.8125 14.82 4.8125 16.14 4.8125 17.5 C8.4425 17.17 12.0725 16.84 15.8125 16.5 C15.8125 17.49 15.8125 18.48 15.8125 19.5 C15.19761719 19.48839844 14.58273438 19.47679688 13.94921875 19.46484375 C12.73685547 19.45130859 12.73685547 19.45130859 11.5 19.4375 C10.69949219 19.42589844 9.89898437 19.41429688 9.07421875 19.40234375 C6.64388666 19.40342145 6.64388666 19.40342145 3.8125 20.5 C8.14670699 22.53165952 12.09846212 23.02060632 16.8125 23.5 C16.8125 22.84 16.8125 22.18 16.8125 21.5 C17.4725 21.5 18.1325 21.5 18.8125 21.5 C19.3075 20.015 19.3075 20.015 19.8125 18.5 C20.3075 21.47 20.3075 21.47 20.8125 24.5 C21.4725 23.51 22.1325 22.52 22.8125 21.5 C24.1325 21.83 25.4525 22.16 26.8125 22.5 C28.30947302 28.18849748 27.1473044 32.91809068 25.8125 38.5 C23.8325 38.5 21.8525 38.5 19.8125 38.5 C19.4825 36.85 19.1525 35.2 18.8125 33.5 C18.1525 33.5 17.4925 33.5 16.8125 33.5 C16.73 34.139375 16.6475 34.77875 16.5625 35.4375 C15.72139302 38.87202017 14.40379996 41.81552616 12.921875 45.015625 C11.39821983 48.42775419 10.1196638 51.92370099 8.83984375 55.43359375 C7.8125 57.5 7.8125 57.5 4.8125 59.5 C2.33203125 59.6953125 2.33203125 59.6953125 -0.375 59.625 C-1.27605469 59.60695312 -2.17710938 59.58890625 -3.10546875 59.5703125 C-3.79253906 59.54710937 -4.47960938 59.52390625 -5.1875 59.5 C-5.8125 57.6875 -5.8125 57.6875 -6.1875 55.5 C-5.5275 54.51 -4.8675 53.52 -4.1875 52.5 C-2.8675 52.5 -1.5475 52.5 -0.1875 52.5 C-0.1875 51.51 -0.1875 50.52 -0.1875 49.5 C-1.5075 48.84 -2.8275 48.18 -4.1875 47.5 C-3.8575 46.51 -3.5275 45.52 -3.1875 44.5 C-4.5075 43.84 -5.8275 43.18 -7.1875 42.5 C-6.11628906 42.51160156 -5.04507813 42.52320313 -3.94140625 42.53515625 C-2.54427257 42.54453299 -1.14713701 42.55363331 0.25 42.5625 C0.95705078 42.57087891 1.66410156 42.57925781 2.39257812 42.58789062 C4.19943559 42.59653588 6.00637603 42.55220011 7.8125 42.5 C8.1425 42.17 8.4725 41.84 8.8125 41.5 C2.8725 41.17 -3.0675 40.84 -9.1875 40.5 C-4.71751715 36.03001715 -4.71751715 36.03001715 0 35.375 C2.59313339 35.04058912 2.59313339 35.04058912 4.8125 34.5 C5.1425 33.84 5.4725 33.18 5.8125 32.5 C2.5125 32.5 -0.7875 32.5 -4.1875 32.5 C-4.1875 26.89 -4.1875 21.28 -4.1875 15.5 C-10.1275 14.51 -10.1275 14.51 -16.1875 13.5 C-16.1875 5.96165624 -16.1875 5.96165624 -13.00146484 1.8828125 C-9.21721965 -1.00197414 -4.53596513 -0.24597874 0 0 Z " fill="#D09D86" transform="translate(63.1875,16.5)"/>
<path d="M0 0 C3.69464399 0.24288431 5.78534884 1.34195725 8.96484375 3.203125 C9.93164062 3.76 10.8984375 4.316875 11.89453125 4.890625 C12.61898437 5.32375 13.3434375 5.756875 14.08984375 6.203125 C14.08984375 6.863125 14.08984375 7.523125 14.08984375 8.203125 C14.74984375 8.203125 15.40984375 8.203125 16.08984375 8.203125 C19.85692643 15.18568182 21.58311609 21.39509945 21.58984375 29.265625 C21.59564453 30.00353271 21.60144531 30.74144043 21.60742188 31.50170898 C21.53550112 34.61192183 21.48718941 36.68515655 19.55859375 39.19921875 C19.07390625 39.53050781 18.58921875 39.86179688 18.08984375 40.203125 C17.59484375 38.223125 17.59484375 38.223125 17.08984375 36.203125 C16.42984375 36.203125 15.76984375 36.203125 15.08984375 36.203125 C15.08984375 36.863125 15.08984375 37.523125 15.08984375 38.203125 C9.87005247 38.3831178 6.01721394 38.17407308 1.08984375 36.203125 C1.41984375 35.543125 1.74984375 34.883125 2.08984375 34.203125 C6.26332395 32.85288141 9.82917967 33.4512431 14.08984375 34.203125 C14.08984375 33.213125 14.08984375 32.223125 14.08984375 31.203125 C10.45984375 31.533125 6.82984375 31.863125 3.08984375 32.203125 C3.08984375 30.883125 3.08984375 29.563125 3.08984375 28.203125 C6.05984375 28.203125 9.02984375 28.203125 12.08984375 28.203125 C12.41984375 24.903125 12.74984375 21.603125 13.08984375 18.203125 C12.42984375 18.203125 11.76984375 18.203125 11.08984375 18.203125 C11.08984375 17.543125 11.08984375 16.883125 11.08984375 16.203125 C7.19407351 16.14490565 3.29841573 16.1094547 -0.59765625 16.078125 C-1.70044922 16.06136719 -2.80324219 16.04460938 -3.93945312 16.02734375 C-5.53950195 16.01767578 -5.53950195 16.01767578 -7.171875 16.0078125 C-8.15115967 15.99733887 -9.13044434 15.98686523 -10.1394043 15.97607422 C-14.2365074 16.31181357 -16.99534512 17.28831387 -19.91015625 20.203125 C-20.3315291 22.14303904 -20.3315291 22.14303904 -20.47265625 24.265625 C-20.91015625 28.203125 -20.91015625 28.203125 -21.91015625 29.203125 C-22.14379506 31.05204446 -22.3231926 32.90800531 -22.47265625 34.765625 C-22.55644531 35.77753906 -22.64023437 36.78945313 -22.7265625 37.83203125 C-22.81744141 39.00572266 -22.81744141 39.00572266 -22.91015625 40.203125 C-25.52287316 38.29464445 -25.9055458 37.22865266 -26.4921875 33.98046875 C-27.62119123 15.17011853 -27.62119123 15.17011853 -22.22265625 8.328125 C-15.49979696 1.4428778 -9.24372929 0.6451999 0 0 Z " fill="#473A34" transform="translate(64.91015625,1.796875)"/>
<path d="M0 0 C0.5775 0.2475 1.155 0.495 1.75 0.75 C1.110625 1.45125 0.47125 2.1525 -0.1875 2.875 C-2.41386102 5.97841233 -2.90080943 7.99620139 -3.25 11.75 C-2.198125 11.70875 -1.14625 11.6675 -0.0625 11.625 C3.54304157 11.74321448 5.51818463 12.33224334 8.75 13.75 C8.94561869 15.8325867 9.13119313 17.91611856 9.3125 20 C9.41691406 21.16015625 9.52132812 22.3203125 9.62890625 23.515625 C9.75 26.75 9.75 26.75 8.75 30.75 C12.05 30.75 15.35 30.75 18.75 30.75 C18.42 31.74 18.09 32.73 17.75 33.75 C16.71939453 33.93175781 16.71939453 33.93175781 15.66796875 34.1171875 C14.31638672 34.36855469 14.31638672 34.36855469 12.9375 34.625 C12.04417969 34.78742187 11.15085937 34.94984375 10.23046875 35.1171875 C7.52272154 35.66188449 7.52272154 35.66188449 4.75 37.75 C10.69 38.08 16.63 38.41 22.75 38.75 C22.09 39.74 21.43 40.73 20.75 41.75 C17.7109375 42.04296875 17.7109375 42.04296875 14.125 41.9375 C12.93648437 41.91042969 11.74796875 41.88335937 10.5234375 41.85546875 C9.60820313 41.82066406 8.69296875 41.78585938 7.75 41.75 C8.41 42.08 9.07 42.41 9.75 42.75 C9.75 43.74 9.75 44.73 9.75 45.75 C11.07 46.41 12.39 47.07 13.75 47.75 C13.42 48.74 13.09 49.73 12.75 50.75 C11.43 50.75 10.11 50.75 8.75 50.75 C8.42 52.73 8.09 54.71 7.75 56.75 C6.265 56.255 6.265 56.255 4.75 55.75 C4.02544365 54.10767228 3.36710928 52.43564479 2.75 50.75 C1.75529829 49.1088741 0.7335367 47.48389183 -0.3125 45.875 C-2.8917357 41.68295754 -4.03717637 38.64494356 -4.25 33.75 C-5.735 34.245 -5.735 34.245 -7.25 34.75 C-9.32667268 29.6975588 -9.38702407 25.74961781 -8.9375 20.4375 C-8.86499023 19.34598633 -8.86499023 19.34598633 -8.79101562 18.23242188 C-8.39828817 12.89828817 -8.39828817 12.89828817 -7.25 11.75 C-7.146875 10.491875 -7.04375 9.23375 -6.9375 7.9375 C-6.58425501 4.86868414 -6.28503262 3.79952888 -4.4375 1.1875 C-2.25 -0.25 -2.25 -0.25 0 0 Z " fill="#C3927D" transform="translate(50.25,18.25)"/>
<path d="M0 0 C0.66 0 1.32 0 2 0 C2.06058594 0.77085938 2.12117188 1.54171875 2.18359375 2.3359375 C2.30927734 3.84027344 2.30927734 3.84027344 2.4375 5.375 C2.51871094 6.37273437 2.59992188 7.37046875 2.68359375 8.3984375 C2.84965626 10.97927613 2.84965626 10.97927613 4 13 C6.01669827 14.13350534 6.01669827 14.13350534 8 15 C7.34 15 6.68 15 6 15 C5.95875 15.825 5.9175 16.65 5.875 17.5 C3.62678 26.49288 -3.46194013 31.32887438 -11 36 C-12.03125 36.639375 -13.0625 37.27875 -14.125 37.9375 C-17.94908458 39.35074865 -20.93952235 39.21002471 -25 39 C-26.75747614 34.49646738 -27.19294408 30.82360189 -27 26 C-25.02 25.34 -23.04 24.68 -21 24 C-21.33 22.35 -21.66 20.7 -22 19 C-20.783125 18.87625 -19.56625 18.7525 -18.3125 18.625 C-14.9366117 18.18804992 -11.99174818 17.72252168 -9 16 C-8.85304688 15.37480469 -8.70609375 14.74960938 -8.5546875 14.10546875 C-7.89018365 11.58316188 -7.01090249 10.81139238 -5.0625 9.125 C-2.12859273 6.36698646 -0.94577202 3.97224248 0 0 Z " fill="#CBA38C" transform="translate(81,63)"/>
<path d="M0 0 C1.00998047 0.02320312 2.01996094 0.04640625 3.06054688 0.0703125 C10.38421731 0.28585865 10.38421731 0.28585865 12.8125 1.5 C12.8125 2.16 12.8125 2.82 12.8125 3.5 C13.4725 3.5 14.1325 3.5 14.8125 3.5 C14.4825 6.8 14.1525 10.1 13.8125 13.5 C11.59895833 13.72786458 9.38541667 13.95572917 7.171875 14.18359375 C4.51631637 14.49511197 4.51631637 14.49511197 0.8125 15.5 C0.8125 21.11 0.8125 26.72 0.8125 32.5 C-0.8375 32.5 -2.4875 32.5 -4.1875 32.5 C-4.1875 26.89 -4.1875 21.28 -4.1875 15.5 C-10.1275 14.51 -10.1275 14.51 -16.1875 13.5 C-16.1875 5.96165624 -16.1875 5.96165624 -13.00146484 1.8828125 C-9.21721965 -1.00197414 -4.53596513 -0.24597874 0 0 Z " fill="#DCA994" transform="translate(63.1875,16.5)"/>
<path d="M0 0 C4.84494864 1.33653756 5.92279628 2.82386697 8.625 7 C8.625 8.32 8.625 9.64 8.625 11 C7.69816406 10.67644531 6.77132812 10.35289063 5.81640625 10.01953125 C0.7748191 8.58505702 -4.23052747 8.67008538 -9.4375 8.6875 C-10.40494141 8.67138672 -11.37238281 8.65527344 -12.36914062 8.63867188 C-18.7105721 8.6343314 -23.0812459 9.38771227 -28.1875 13.4375 C-29.56986477 15.25640102 -29.98957977 16.76456267 -30.375 19 C-31.035 19 -31.695 19 -32.375 19 C-32.375 22.3 -32.375 25.6 -32.375 29 C-32.705 29 -33.035 29 -33.375 29 C-33.49198258 25.79197767 -33.56250607 22.58450975 -33.625 19.375 C-33.65851562 18.47136719 -33.69203125 17.56773438 -33.7265625 16.63671875 C-33.81258501 10.74417714 -33.30886113 7.47843935 -29.375 3 C-24.03396838 0.00381153 -18.20350032 1.05880513 -12.375 2 C-8.6875 3.0625 -8.6875 3.0625 -6.375 4 C-6.375 3.34 -6.375 2.68 -6.375 2 C-3.375 0 -3.375 0 0 0 Z " fill="#3D2E27" transform="translate(73.375,8)"/>
<path d="M0 0 C0.44921875 2.80078125 0.44921875 2.80078125 0.6875 6.3125 C0.77386719 7.46363281 0.86023438 8.61476563 0.94921875 9.80078125 C1 13 1 13 0 17 C3.3 17 6.6 17 10 17 C9.67 17.99 9.34 18.98 9 20 C8.31292969 20.12117188 7.62585938 20.24234375 6.91796875 20.3671875 C6.01691406 20.53476562 5.11585937 20.70234375 4.1875 20.875 C3.29417969 21.03742187 2.40085937 21.19984375 1.48046875 21.3671875 C-1.22727846 21.91188449 -1.22727846 21.91188449 -4 24 C1.94 24.33 7.88 24.66 14 25 C13.34 25.99 12.68 26.98 12 28 C9.14032743 28.30479269 6.54378971 28.41795173 3.6875 28.375 C2.92759766 28.38660156 2.16769531 28.39820312 1.38476562 28.41015625 C-3.25071557 28.38599214 -6.17414952 27.88656983 -10 25 C-9.67 23.68 -9.34 22.36 -9 21 C-7.68 21 -6.36 21 -5 21 C-2.67007356 17.50511034 -1.86379071 15.99238196 -2.4375 11.8125 C-2.623125 10.884375 -2.80875 9.95625 -3 9 C-6.96 8.67 -10.92 8.34 -15 8 C-15.33 6.35 -15.66 4.7 -16 3 C-14 0 -14 0 -11.8125 -0.6875 C-3.27272727 -1.63636364 -3.27272727 -1.63636364 0 0 Z " fill="#A06859" transform="translate(59,32)"/>
<path d="M0 0 C3.6041498 -0.02900455 7.20826962 -0.04680018 10.8125 -0.0625 C11.83666016 -0.07087891 12.86082031 -0.07925781 13.91601562 -0.08789062 C15.39038086 -0.09272461 15.39038086 -0.09272461 16.89453125 -0.09765625 C17.80050049 -0.10289307 18.70646973 -0.10812988 19.63989258 -0.11352539 C22.58006267 0.02790205 24.43830208 0.48150961 26.625 2.5 C28.34792711 5.63259475 28.53441231 8.28816871 28.8125 11.81640625 C28.96435704 14.13162591 28.96435704 14.13162591 29.625 16.875 C30 19 30 19 29 22 C28.34 22 27.68 22 27 22 C27 22.66 27 23.32 27 24 C21.78020872 24.1799928 17.92737019 23.97094808 13 22 C13.33 21.34 13.66 20.68 14 20 C18.1734802 18.64975641 21.73933592 19.2481181 26 20 C26 19.01 26 18.02 26 17 C22.37 17.33 18.74 17.66 15 18 C15 16.68 15 15.36 15 14 C17.97 14 20.94 14 24 14 C24.33 10.7 24.66 7.4 25 4 C24.34 4 23.68 4 23 4 C23 3.34 23 2.68 23 2 C11.615 1.505 11.615 1.505 0 1 C0 0.67 0 0.34 0 0 Z " fill="#9F7561" transform="translate(53,16)"/>
<path d="M0 0 C0 0.66 0 1.32 0 2 C-0.99 2 -1.98 2 -3 2 C-3 2.66 -3 3.32 -3 4 C-4.57421875 5.5859375 -4.57421875 5.5859375 -6.6875 7.375 C-7.41324219 7.99632813 -8.13898437 8.61765625 -8.88671875 9.2578125 C-10.5552172 10.63332139 -12.27009146 11.9525686 -14 13.25 C-14.66 13.8275 -15.32 14.405 -16 15 C-16 19.08416571 -15.84710374 23.30579253 -14 27 C-14.66 27 -15.32 27 -16 27 C-16.33 29.97 -16.66 32.94 -17 36 C-19.64 36 -22.28 36 -25 36 C-24.15258684 32.67982977 -23.26701427 29.37094098 -22.375 26.0625 C-22.02115234 24.67321289 -22.02115234 24.67321289 -21.66015625 23.25585938 C-19.54103098 15.51290166 -16.64197997 8.73148498 -10.078125 3.80859375 C-9.14484375 3.35613281 -8.2115625 2.90367188 -7.25 2.4375 C-6.30640625 1.96183594 -5.3628125 1.48617187 -4.390625 0.99609375 C-2 0 -2 0 0 0 Z " fill="#25272B" transform="translate(29,92)"/>
<path d="M0 0 C0.33 0 0.66 0 1 0 C1 2.31 1 4.62 1 7 C2.65 7 4.3 7 6 7 C5.67 7.66 5.34 8.32 5 9 C2.9375 9.625 2.9375 9.625 1 10 C0.86464844 10.71285156 0.72929688 11.42570312 0.58984375 12.16015625 C-0.8422568 18.5317174 -2.45012925 22.32078417 -7.4765625 26.5625 C-9.27293899 28.03052689 -9.27293899 28.03052689 -10 31 C-14.27699513 34.49935965 -17.72095072 34.26842623 -23 34 C-23.33 34.66 -23.66 35.32 -24 36 C-24 35.01 -24 34.02 -24 33 C-22.1746875 32.9071875 -22.1746875 32.9071875 -20.3125 32.8125 C-15.77679031 32.24453635 -13.91807623 30.56653762 -11 27 C-10.236875 26.071875 -9.47375 25.14375 -8.6875 24.1875 C-8.130625 23.465625 -7.57375 22.74375 -7 22 C-7.99 22.33 -8.98 22.66 -10 23 C-8.99806563 19.20696275 -8.18975773 16.28463659 -6 13 C-5.30741771 11.00882592 -4.64252365 9.0078864 -4 7 C-3.34588315 5.32836805 -2.68346682 3.65984798 -2 2 C-1.34 2 -0.68 2 0 2 C0 1.34 0 0.68 0 0 Z " fill="#AF856F" transform="translate(82,48)"/>
<path d="M0 0 C3.38891322 0.68886787 6.18011613 1.98716486 9.25 3.5625 C10.14203125 4.01753906 11.0340625 4.47257813 11.953125 4.94140625 C12.96632813 5.46541016 12.96632813 5.46541016 14 6 C14 6.66 14 7.32 14 8 C14.66 8 15.32 8 16 8 C19.76708268 14.98255682 21.49327234 21.19197445 21.5 29.0625 C21.50580078 29.80040771 21.51160156 30.53831543 21.51757812 31.29858398 C21.44565737 34.40879683 21.39734566 36.48203155 19.46875 38.99609375 C18.9840625 39.32738281 18.499375 39.65867188 18 40 C17.90912109 38.95199219 17.90912109 38.95199219 17.81640625 37.8828125 C17.69072266 36.51769531 17.69072266 36.51769531 17.5625 35.125 C17.48128906 34.22007813 17.40007812 33.31515625 17.31640625 32.3828125 C17.13010715 29.98889139 17.13010715 29.98889139 16 28 C15.72904124 25.73340843 15.55512003 23.46718841 15.37890625 21.19140625 C15.1032176 18.71626355 15.1032176 18.71626355 13 16 C14.32 16.33 15.64 16.66 17 17 C15.12297673 12.10437307 15.12297673 12.10437307 12 8 C7.90154112 6.91755221 7.90154112 6.91755221 4 8 C3.34 7.67 2.68 7.34 2 7 C3 5 3 5 4 4 C1.525 3.01 1.525 3.01 -1 2 C-0.67 1.34 -0.34 0.68 0 0 Z " fill="#594A3F" transform="translate(65,2)"/>
<path d="M0 0 C0.33 0 0.66 0 1 0 C1.33 1.98 1.66 3.96 2 6 C2.66 5.01 3.32 4.02 4 3 C5.32 3.33 6.64 3.66 8 4 C9.49697302 9.68849748 8.3348044 14.41809068 7 20 C5.02 20 3.04 20 1 20 C0.67 18.35 0.34 16.7 0 15 C-0.33 15 -0.66 15 -1 15 C-1 12.03 -1 9.06 -1 6 C-2.65 6 -4.3 6 -6 6 C-4.68 5.67 -3.36 5.34 -2 5 C-2 4.34 -2 3.68 -2 3 C-1.34 3 -0.68 3 0 3 C0 2.01 0 1.02 0 0 Z " fill="#BF7F6C" transform="translate(82,35)"/>
<path d="M0 0 C0.33 0.99 0.66 1.98 1 3 C6.445 2.505 6.445 2.505 12 2 C12 2.99 12 3.98 12 5 C11.07767578 4.98259766 11.07767578 4.98259766 10.13671875 4.96484375 C8.92435547 4.95130859 8.92435547 4.95130859 7.6875 4.9375 C6.88699219 4.92589844 6.08648437 4.91429687 5.26171875 4.90234375 C2.83138666 4.90342145 2.83138666 4.90342145 0 6 C2.475 6.99 2.475 6.99 5 8 C4.505 8.350625 4.01 8.70125 3.5 9.0625 C1.26936034 11.94374289 1.80019379 14.47009026 2 18 C0.35 18 -1.3 18 -3 18 C-3 12.39 -3 6.78 -3 1 C-2.01 0.67 -1.02 0.34 0 0 Z " fill="#C78E78" transform="translate(67,31)"/>
<path d="M0 0 C0.66 0 1.32 0 2 0 C4.83392052 3.09154966 5.96483052 4.85932209 7 9 C-0.26 8.67 -7.52 8.34 -15 8 C-10.53001715 3.53001715 -10.53001715 3.53001715 -5.8125 2.875 C-3.21936661 2.54058912 -3.21936661 2.54058912 -1 2 C-0.67 1.34 -0.34 0.68 0 0 Z " fill="#C99180" transform="translate(69,49)"/>
<path d="M0 0 C4.7242915 1.09671053 4.7242915 1.09671053 6.5 3.8125 C6.5 4.8025 6.5 5.7925 6.5 6.8125 C3.37507749 6.87041844 0.25029234 6.90606746 -2.875 6.9375 C-3.76445313 6.95425781 -4.65390625 6.97101562 -5.5703125 6.98828125 C-6.42109375 6.99472656 -7.271875 7.00117188 -8.1484375 7.0078125 C-9.32672119 7.02352295 -9.32672119 7.02352295 -10.52880859 7.03955078 C-12.5 6.8125 -12.5 6.8125 -14.5 4.8125 C-14.17 4.1525 -13.84 3.4925 -13.5 2.8125 C-11.19 3.1425 -8.88 3.4725 -6.5 3.8125 C-6.5 3.1525 -6.5 2.4925 -6.5 1.8125 C-3.5 -0.1875 -3.5 -0.1875 0 0 Z " fill="#271C18" transform="translate(73.5,8.1875)"/>
<path d="M0 0 C1.7578125 1.52994792 3.515625 3.05989583 5.2734375 4.58984375 C8.7695998 7.44530662 11.91192497 7.5 16.3125 7.5 C21.02256781 6.62370831 23.85943549 3.43883042 27 0 C27 3 27 3 25.1015625 5.0078125 C24.28429687 5.70648438 23.46703125 6.40515625 22.625 7.125 C21.81289062 7.82882813 21.00078125 8.53265625 20.1640625 9.2578125 C16.03591758 12.58119271 13.16809499 12.08335637 8 12 C8 11.34 8 10.68 8 10 C6.35 9.67 4.7 9.34 3 9 C2.01 6.03 1.02 3.06 0 0 Z " fill="#7E5D49" transform="translate(49,68)"/>
<path d="M0 0 C1.1875 3.25 1.1875 3.25 2 7 C0.625 9.4375 0.625 9.4375 -1 11 C-2.65 10.67 -4.3 10.34 -6 10 C-6.33 9.01 -6.66 8.02 -7 7 C-7.66 7 -8.32 7 -9 7 C-10 4 -10 4 -9 1 C-5.8035914 -0.06546953 -3.34252724 -0.07427838 0 0 Z " fill="#DEA593" transform="translate(78,42)"/>
<path d="M0 0 C0.33 0.99 0.66 1.98 1 3 C-1.64 3.33 -4.28 3.66 -7 4 C-3.7 4.33 -0.4 4.66 3 5 C2.67 5.99 2.34 6.98 2 8 C-2.40914783 9.10228696 -6.48382401 9.07654536 -11 9 C-11.625 6.6875 -11.625 6.6875 -12 4 C-10 1 -10 1 -7.6875 0.3125 C-5.09355691 0.01087871 -2.60858859 -0.0745311 0 0 Z " fill="#8D6756" transform="translate(55,31)"/>
<path d="M0 0 C0.99 0.66 1.98 1.32 3 2 C2.67 6.95 2.34 11.9 2 17 C-3 14 -3 14 -4 13 C-4.07205511 11.31391034 -4.08386068 9.62499341 -4.0625 7.9375 C-4.05347656 7.01839844 -4.04445312 6.09929687 -4.03515625 5.15234375 C-4.02355469 4.44207031 -4.01195312 3.73179688 -4 3 C-2.68 2.67 -1.36 2.34 0 2 C0 1.34 0 0.68 0 0 Z " fill="#936D55" transform="translate(49,86)"/>
<path d="M0 0 C0 0.66 0 1.32 0 2 C-0.99 2 -1.98 2 -3 2 C-3 2.66 -3 3.32 -3 4 C-4.57421875 5.5859375 -4.57421875 5.5859375 -6.6875 7.375 C-7.41582031 7.99761719 -8.14414062 8.62023437 -8.89453125 9.26171875 C-10.5246479 10.60754789 -12.19270466 11.90749267 -13.875 13.1875 C-17.92724586 16.64382735 -18.64328126 20.96075898 -20 26 C-21.95278288 20.64559534 -19.16625044 15.93669319 -17 11 C-14.12190004 5.81942008 -6.15375179 0 0 0 Z " fill="#484A4F" transform="translate(29,92)"/>
<path d="M0 0 C1.32 0.33 2.64 0.66 4 1 C4.19561869 3.0825867 4.38119313 5.16611856 4.5625 7.25 C4.66691406 8.41015625 4.77132812 9.5703125 4.87890625 10.765625 C5 14 5 14 4 18 C7.3 18 10.6 18 14 18 C13.67 18.99 13.34 19.98 13 21 C12.67 20.34 12.34 19.68 12 19 C11.071875 19.185625 10.14375 19.37125 9.1875 19.5625 C6 20 6 20 3 19 C2.32676943 16.72171642 2.0509564 14.47983723 1.72265625 12.12890625 C1.1878197 9.81383748 1.1878197 9.81383748 -1.06640625 8.71484375 C-1.70449219 8.47894531 -2.34257813 8.24304687 -3 8 C-2.195625 7.87625 -1.39125 7.7525 -0.5625 7.625 C0.283125 7.41875 1.12875 7.2125 2 7 C2.33 6.34 2.66 5.68 3 5 C-0.63 5 -4.26 5 -8 5 C-7.67 4.34 -7.34 3.68 -7 3 C-4.36 3 -1.72 3 1 3 C0.67 2.01 0.34 1.02 0 0 Z " fill="#B07866" transform="translate(55,31)"/>
<path d="M0 0 C0.99 0 1.98 0 3 0 C5.442877 3.6643155 5.07844476 5.68553809 5 10 C5.33 10.66 5.66 11.32 6 12 C6.039992 13.99960012 6.04346799 16.00047242 6 18 C4.35 18 2.7 18 1 18 C0.23540003 14.44266626 -0.27912646 10.9342901 -0.625 7.3125 C-0.72039063 6.35988281 -0.81578125 5.40726563 -0.9140625 4.42578125 C-1 2 -1 2 0 0 Z " fill="#AB6E5E" transform="translate(37,39)"/>
<path d="M0 0 C2.97 0.495 2.97 0.495 6 1 C6.3125 3.6875 6.3125 3.6875 6 7 C3.5 9.875 3.5 9.875 1 12 C0.01 11.67 -0.98 11.34 -2 11 C-3.35384615 4.6 -3.35384615 4.6 -1.5625 1.5625 C-1.046875 1.046875 -0.53125 0.53125 0 0 Z " fill="#D79E8A" transform="translate(49,42)"/>
<path d="M0 0 C0.66 0.33 1.32 0.66 2 1 C1.57847656 1.48210938 1.15695313 1.96421875 0.72265625 2.4609375 C0.17480469 3.09257812 -0.37304688 3.72421875 -0.9375 4.375 C-1.48277344 5.00148438 -2.02804688 5.62796875 -2.58984375 6.2734375 C-5.07209622 9.31264967 -5.11191056 11.27097651 -5.0625 15.125 C-5.04896484 16.49011719 -5.04896484 16.49011719 -5.03515625 17.8828125 C-5.02355469 18.58148437 -5.01195312 19.28015625 -5 20 C-4.34 20 -3.68 20 -3 20 C-2.67 18.68 -2.34 17.36 -2 16 C-1.95758277 18.33294775 -1.95907063 20.66702567 -2 23 C-2.33 23.33 -2.66 23.66 -3 24 C-3.23363881 25.84891946 -3.41303635 27.70488031 -3.5625 29.5625 C-3.64628906 30.57441406 -3.73007812 31.58632813 -3.81640625 32.62890625 C-3.90728516 33.80259766 -3.90728516 33.80259766 -4 35 C-6.61271691 33.09151945 -6.99538955 32.02552766 -7.58203125 28.77734375 C-8.72033661 9.81201886 -8.72033661 9.81201886 -2.875 2.875 C-1.9348293 1.89884191 -0.98273733 0.93329143 0 0 Z " fill="#5F5045" transform="translate(46,7)"/>
<path d="M0 0 C1.65 0.33 3.3 0.66 5 1 C4.67 1.66 4.34 2.32 4 3 C3.34 3 2.68 3 2 3 C2 3.66 2 4.32 2 5 C3.32 5.33 4.64 5.66 6 6 C5.360625 6.5775 4.72125 7.155 4.0625 7.75 C2.01776132 9.98062401 1.41794801 11.07436391 1 14 C0.34 14 -0.32 14 -1 14 C-1 17.3 -1 20.6 -1 24 C-1.33 24 -1.66 24 -2 24 C-2.05819424 20.75007554 -2.09366116 17.50028565 -2.125 14.25 C-2.14175781 13.32960938 -2.15851562 12.40921875 -2.17578125 11.4609375 C-2.18222656 10.57148438 -2.18867187 9.68203125 -2.1953125 8.765625 C-2.20578613 7.94868164 -2.21625977 7.13173828 -2.22705078 6.29003906 C-1.97829916 3.78112482 -1.25700129 2.16604375 0 0 Z " fill="#3F332D" transform="translate(42,13)"/>
<path d="M0 0 C0.5775 0.2475 1.155 0.495 1.75 0.75 C1.110625 1.45125 0.47125 2.1525 -0.1875 2.875 C-2.41386102 5.97841233 -2.90080943 7.99620139 -3.25 11.75 C-0.94 11.75 1.37 11.75 3.75 11.75 C1.46949607 13.01694663 -0.35336512 13.76923072 -2.9375 14.25 C-3.700625 14.415 -4.46375 14.58 -5.25 14.75 C-5.58 15.41 -5.91 16.07 -6.25 16.75 C-6.91 16.75 -7.57 16.75 -8.25 16.75 C-8.105625 16.09 -7.96125 15.43 -7.8125 14.75 C-7.22741054 11.93322063 -7.22741054 11.93322063 -7.1015625 9.77734375 C-6.82860864 6.30043143 -6.46972121 4.06064033 -4.4375 1.1875 C-2.25 -0.25 -2.25 -0.25 0 0 Z " fill="#A07762" transform="translate(50.25,18.25)"/>
<path d="M0 0 C0.99 0.495 0.99 0.495 2 1 C2.625 3.0625 2.625 3.0625 3 5 C4.32 5.33 5.64 5.66 7 6 C7 6.66 7 7.32 7 8 C10.3 7.67 13.6 7.34 17 7 C16.67 7.66 16.34 8.32 16 9 C13.36 9 10.72 9 8 9 C8.66 10.98 9.32 12.96 10 15 C8.02 15.99 8.02 15.99 6 17 C5.73445313 16.39671875 5.46890625 15.7934375 5.1953125 15.171875 C4.84210937 14.37265625 4.48890625 13.5734375 4.125 12.75 C3.77695312 11.96109375 3.42890625 11.1721875 3.0703125 10.359375 C2.04800932 8.02272192 2.04800932 8.02272192 0.8671875 5.953125 C0 4 0 4 0 0 Z " fill="#9F7861" transform="translate(50,72)"/>
<path d="M0 0 C1.32 0 2.64 0 4 0 C4.66 0.66 5.32 1.32 6 2 C5.7578125 4.3828125 5.7578125 4.3828125 5.125 7.125 C4.92132813 8.03507812 4.71765625 8.94515625 4.5078125 9.8828125 C4.34023437 10.58148438 4.17265625 11.28015625 4 12 C2.02 12 0.04 12 -2 12 C-2 9.03 -2 6.06 -2 3 C-1.34 3 -0.68 3 0 3 C0 2.01 0 1.02 0 0 Z " fill="#D49B87" transform="translate(85,43)"/>
<path d="M0 0 C1.00998047 0.01482422 2.01996094 0.02964844 3.06054688 0.04492188 C10.48869978 0.23869978 10.48869978 0.23869978 12.8125 2.5625 C12.17747559 2.51013184 11.54245117 2.45776367 10.88818359 2.40380859 C-1.20002032 0.91670969 -1.20002032 0.91670969 -11.984375 4.7890625 C-13.45585029 7.37507105 -14.47671367 9.67814968 -15.1875 12.5625 C-13.929375 12.500625 -12.67125 12.43875 -11.375 12.375 C-9.23046875 12.26953125 -9.23046875 12.26953125 -7.1875 12.5625 C-6.1975 13.5525 -5.2075 14.5425 -4.1875 15.5625 C-10.1275 14.5725 -10.1275 14.5725 -16.1875 13.5625 C-16.1875 6.02742774 -16.1875 6.02742774 -13.00146484 1.94970703 C-9.21601285 -0.94517026 -4.54605613 -0.22598213 0 0 Z " fill="#C3927A" transform="translate(63.1875,16.4375)"/>
<path d="M0 0 C0.20367187 0.64453125 0.40734375 1.2890625 0.6171875 1.953125 C1.8667935 4.31153872 1.8667935 4.31153872 4.8203125 4.609375 C5.91085938 4.65578125 7.00140625 4.7021875 8.125 4.75 C9.76855469 4.83507813 9.76855469 4.83507813 11.4453125 4.921875 C12.28835937 4.94765625 13.13140625 4.9734375 14 5 C16.5234375 12.71875 16.5234375 12.71875 15 16 C13.4375 17.75 13.4375 17.75 12 19 C11.01 18.67 10.02 18.34 9 18 C9.33 17.34 9.66 16.68 10 16 C10.66 16 11.32 16 12 16 C12.66 13.03 13.32 10.06 14 7 C9.71 6.67 5.42 6.34 1 6 C1.165 7.2375 1.33 8.475 1.5 9.75 C1.87709444 12.57820832 2 15.11564062 2 18 C-0.53835868 15.41596392 -0.99485632 14.23931642 -1.07421875 10.546875 C-0.94660156 9.29390625 -0.81898437 8.0409375 -0.6875 6.75 C-0.56761719 5.48671875 -0.44773438 4.2234375 -0.32421875 2.921875 C-0.21722656 1.95765625 -0.11023437 0.9934375 0 0 Z " fill="#BC836F" transform="translate(42,35)"/>
<path d="M0 0 C-2.33215104 3.49822656 -4.29519627 4.18701094 -8 6 C-8.33 6.66 -8.66 7.32 -9 8 C-10.65 8 -12.3 8 -14 8 C-14 7 -14 6 -14 5 C-14.33 4.01 -14.66 3.02 -15 2 C-9.37129115 -0.93161919 -6.22833095 -1.2019586 0 0 Z " fill="#302622" transform="translate(58,10)"/>
<path d="M0 0 C0.33 0 0.66 0 1 0 C1.06058594 0.62648438 1.12117188 1.25296875 1.18359375 1.8984375 C1.26738281 2.71570313 1.35117188 3.53296875 1.4375 4.375 C1.51871094 5.18710938 1.59992188 5.99921875 1.68359375 6.8359375 C1.89090114 9.04272805 1.89090114 9.04272805 3 11 C5.01669827 12.13350534 5.01669827 12.13350534 7 13 C6.34 13 5.68 13 5 13 C4.896875 13.928125 4.79375 14.85625 4.6875 15.8125 C3.96772204 19.14965236 3.42857128 19.83186532 1 22 C-0.69745411 14.4675474 -1.85345074 7.64548431 0 0 Z " fill="#BA9177" transform="translate(82,65)"/>
<path d="M0 0 C4.14298667 0.59834725 7.18194377 2.00664285 10.8125 4.0625 C11.78832031 4.61035156 12.76414062 5.15820312 13.76953125 5.72265625 C14.50558594 6.14417969 15.24164063 6.56570312 16 7 C15.67 8.32 15.34 9.64 15 11 C10.9814387 9.78508612 7.35787751 8.56778868 4 6 C4 4.68 4 3.36 4 2 C2.68 2.33 1.36 2.66 0 3 C0 2.01 0 1.02 0 0 Z " fill="#3F3F43" transform="translate(87,78)"/>
<path d="M0 0 C2.31 0.66 4.62 1.32 7 2 C7 2.99 7 3.98 7 5 C8.32 5.66 9.64 6.32 11 7 C10.01 8.485 10.01 8.485 9 10 C8.01 9.67 7.02 9.34 6 9 C5.01 9.33 4.02 9.66 3 10 C1.5 8.9375 1.5 8.9375 0 7 C-0.1875 3.3125 -0.1875 3.3125 0 0 Z " fill="#B98370" transform="translate(53,59)"/>
<path d="M0 0 C4.29 0 8.58 0 13 0 C13 1.32 13 2.64 13 4 C9.5647952 6.29013653 8.014669 6.17842973 4 6 C3.67 5.34 3.34 4.68 3 4 C3.33 3.34 3.66 2.68 4 2 C2.68 1.34 1.36 0.68 0 0 Z " fill="#CD817A" transform="translate(56,59)"/>
<path d="M0 0 C0.99 0.495 0.99 0.495 2 1 C2 2.65 2 4.3 2 6 C2.99 6 3.98 6 5 6 C5 9.63 5 13.26 5 17 C3.35 17 1.7 17 0 17 C0 11.39 0 5.78 0 0 Z " fill="#D59A86" transform="translate(59,32)"/>
<path d="M0 0 C0.66 0 1.32 0 2 0 C2.33 0.66 2.66 1.32 3 2 C5.52733235 2.65555119 5.52733235 2.65555119 8 3 C7.01 4.485 7.01 4.485 6 6 C6.33 6.33 6.66 6.66 7 7 C6.01 7.495 6.01 7.495 5 8 C5 8.66 5 9.32 5 10 C4.01 9.67 3.02 9.34 2 9 C1.67 8.34 1.34 7.68 1 7 C0.236875 7.061875 -0.52625 7.12375 -1.3125 7.1875 C-4 7 -4 7 -5.8125 5.5 C-6.204375 5.005 -6.59625 4.51 -7 4 C-5.68 4 -4.36 4 -3 4 C-3 3.34 -3 2.68 -3 2 C-2.01 2 -1.02 2 0 2 C0 1.34 0 0.68 0 0 Z " fill="#3C312D" transform="translate(62,2)"/>
<path d="M0 0 C3.38891322 0.68886787 6.18011613 1.98716486 9.25 3.5625 C10.14203125 4.01753906 11.0340625 4.47257813 11.953125 4.94140625 C12.96632813 5.46541016 12.96632813 5.46541016 14 6 C14 6.66 14 7.32 14 8 C14.66 8.33 15.32 8.66 16 9 C13 9 13 9 9.4375 7.9375 C6.17160162 6.636368 6.17160162 6.636368 4 8 C3.34 7.67 2.68 7.34 2 7 C3 5 3 5 4 4 C1.525 3.01 1.525 3.01 -1 2 C-0.67 1.34 -0.34 0.68 0 0 Z " fill="#4A3C36" transform="translate(65,2)"/>
<path d="M0 0 C4.76982345 0.76164845 9.16096782 2.37213771 13.6875 4 C14.84475586 4.40992187 14.84475586 4.40992187 16.02539062 4.828125 C21.70117781 6.85058891 21.70117781 6.85058891 24 8 C24 8.66 24 9.32 24 10 C23.38125 9.71125 22.7625 9.4225 22.125 9.125 C18.52347696 7.8284517 14.96642122 7.14683204 11.20703125 6.46484375 C9 6 9 6 7 5 C7 4.34 7 3.68 7 3 C6.030625 2.87625 5.06125 2.7525 4.0625 2.625 C3.051875 2.41875 2.04125 2.2125 1 2 C0.67 1.34 0.34 0.68 0 0 Z " fill="#494A4F" transform="translate(104,86)"/>
<path d="M0 0 C0.33 0.99 0.66 1.98 1 3 C6.445 2.505 6.445 2.505 12 2 C12 2.99 12 3.98 12 5 C11.07767578 4.98259766 11.07767578 4.98259766 10.13671875 4.96484375 C8.92435547 4.95130859 8.92435547 4.95130859 7.6875 4.9375 C6.88699219 4.92589844 6.08648437 4.91429687 5.26171875 4.90234375 C2.83138666 4.90342145 2.83138666 4.90342145 0 6 C0.33 6.66 0.66 7.32 1 8 C0.01 8.33 -0.98 8.66 -2 9 C-2 6.36 -2 3.72 -2 1 C-1.34 0.67 -0.68 0.34 0 0 Z " fill="#AD7B66" transform="translate(67,31)"/>
<path d="M0 0 C0.33 0 0.66 0 1 0 C1.34937311 5.58996969 0.52472638 9.96212855 -2 15 C-2.66 15.66 -3.32 16.32 -4 17 C-4.99 17 -5.98 17 -7 17 C-6.731875 16.505 -6.46375 16.01 -6.1875 15.5 C-4.86160196 12.70863571 -3.79761842 9.87075307 -2.73046875 6.97265625 C-1.8632534 4.63071107 -0.93990917 2.31362256 0 0 Z " fill="#BB8D75" transform="translate(80,50)"/>
<path d="M0 0 C1.11058786 2.07309734 1.97398494 3.88618411 2.5 6.1875 C2.665 6.785625 2.83 7.38375 3 8 C3.66 8.33 4.32 8.66 5 9 C5.99 8.67 6.98 8.34 8 8 C8.66 8.66 9.32 9.32 10 10 C9.01 10 8.02 10 7 10 C6.67 11.98 6.34 13.96 6 16 C5.01 15.67 4.02 15.34 3 15 C1.9375 12.6875 1.9375 12.6875 1 10 C0.62875 9.34 0.2575 8.68 -0.125 8 C-1.20423977 5.53316625 -1.21611468 3.66541434 -1 1 C-0.67 0.67 -0.34 0.34 0 0 Z " fill="#BE8E76" transform="translate(52,59)"/>
<path d="M0 0 C-0.33 1.65 -0.66 3.3 -1 5 C-2.58086048 5.36504603 -4.16483907 5.71660506 -5.75 6.0625 C-6.63171875 6.25972656 -7.5134375 6.45695312 -8.421875 6.66015625 C-10.98679028 6.99825872 -12.57091639 6.81158635 -15 6 C-13.06629769 4.99267601 -11.12789694 3.99436712 -9.1875 3 C-8.10855469 2.443125 -7.02960937 1.88625 -5.91796875 1.3125 C-3 0 -3 0 0 0 Z " fill="#362C29" transform="translate(50,83)"/>
<path d="M0 0 C0.33 1.32 0.66 2.64 1 4 C-3.82360189 4.19294408 -7.49646738 3.75747614 -12 2 C-9.67178678 -2.65642643 -4.2230553 -0.62307373 0 0 Z " fill="#7B5648" transform="translate(78,36)"/>
<path d="M0 0 C1.32 0.33 2.64 0.66 4 1 C4.33 3.64 4.66 6.28 5 9 C4.01 9 3.02 9 2 9 C2.33 7.68 2.66 6.36 3 5 C-0.63 5 -4.26 5 -8 5 C-7.67 4.34 -7.34 3.68 -7 3 C-4.36 3 -1.72 3 1 3 C0.67 2.01 0.34 1.02 0 0 Z " fill="#A27460" transform="translate(55,31)"/>
<path d="M0 0 C0.66 0 1.32 0 2 0 C2.33 1.98 2.66 3.96 3 6 C3.99 5.67 4.98 5.34 6 5 C6 6.32 6 7.64 6 9 C3.69 9 1.38 9 -1 9 C-1.80967438 6.08517222 -2.21845993 4.53886783 -1.0625 1.6875 C-0.711875 1.130625 -0.36125 0.57375 0 0 Z " fill="#1A1C20" transform="translate(13,119)"/>
<path d="M0 0 C3.44216672 2.6598561 3.99504674 5.90288286 5 10 C4.34 10.66 3.68 11.32 3 12 C2.59952556 14.32275177 2.2602896 16.65739357 2 19 C1.67 19 1.34 19 1 19 C0.92652344 18.07767578 0.92652344 18.07767578 0.8515625 17.13671875 C0.77679688 16.32847656 0.70203125 15.52023438 0.625 14.6875 C0.55539063 13.88699219 0.48578125 13.08648437 0.4140625 12.26171875 C0.10435574 9.72775559 0.10435574 9.72775559 -2 7 C-0.68 7.33 0.64 7.66 2 8 C1.34 5.36 0.68 2.72 0 0 Z " fill="#605046" transform="translate(80,11)"/>
<path d="M0 0 C0 0.66 0 1.32 0 2 C-0.99 2 -1.98 2 -3 2 C-3 2.66 -3 3.32 -3 4 C-4.64453125 5.62109375 -4.64453125 5.62109375 -6.8125 7.4375 C-9.31102718 9.54463676 -11.7242056 11.65241398 -14 14 C-14.66 13.67 -15.32 13.34 -16 13 C-15.278125 12.29875 -14.55625 11.5975 -13.8125 10.875 C-11.87048372 8.94944149 -10.13372787 6.95648989 -8.4375 4.8125 C-5.83871048 1.81389671 -4.03839709 0 0 0 Z " fill="#414247" transform="translate(29,92)"/>
<path d="M0 0 C2 2 2 2 2 6 C1.113125 5.690625 0.22625 5.38125 -0.6875 5.0625 C-6.30877947 3.42489586 -12.18552198 3.33225589 -18 3 C-18 2.67 -18 2.34 -18 2 C-12.06 2 -6.12 2 0 2 C0 1.34 0 0.68 0 0 Z " fill="#48342A" transform="translate(80,13)"/>
<path d="M0 0 C4.875 4.625 4.875 4.625 6 8 C9.11612257 10.07741505 12.3351268 10.50024456 16 11 C16 11.33 16 11.66 16 12 C13.36 12 10.72 12 8 12 C8 11.34 8 10.68 8 10 C6.35 9.67 4.7 9.34 3 9 C2.01 6.03 1.02 3.06 0 0 Z " fill="#83614C" transform="translate(49,68)"/>
<path d="M0 0 C0.66 0.66 1.32 1.32 2 2 C1.7578125 4.3828125 1.7578125 4.3828125 1.125 7.125 C0.92132813 8.03507812 0.71765625 8.94515625 0.5078125 9.8828125 C0.34023437 10.58148438 0.17265625 11.28015625 0 12 C-0.66 12 -1.32 12 -2 12 C-2.33 11.01 -2.66 10.02 -3 9 C-3.66 8.67 -4.32 8.34 -5 8 C-3.91298723 4.73896169 -2.43026894 2.43026894 0 0 Z " fill="#CF9381" transform="translate(89,43)"/>
<path d="M0 0 C0.33 0 0.66 0 1 0 C1.05386629 2.12472576 1.09273071 4.24983652 1.125 6.375 C1.14820312 7.55835938 1.17140625 8.74171875 1.1953125 9.9609375 C1 13 1 13 -1 15 C-1 12.03 -1 9.06 -1 6 C-2.65 6 -4.3 6 -6 6 C-4.68 5.67 -3.36 5.34 -2 5 C-2 4.34 -2 3.68 -2 3 C-1.34 3 -0.68 3 0 3 C0 2.01 0 1.02 0 0 Z " fill="#BE917B" transform="translate(82,35)"/>
<path d="M0 0 C3.63 0 7.26 0 11 0 C11.66 1.32 12.32 2.64 13 4 C12.34 3.67 11.68 3.34 11 3 C9.12620395 2.92966231 7.24998898 2.9156978 5.375 2.9375 C3.87066406 2.95103516 3.87066406 2.95103516 2.3359375 2.96484375 C1.17964844 2.98224609 1.17964844 2.98224609 0 3 C0 2.01 0 1.02 0 0 Z " fill="#5D443C" transform="translate(68,31)"/>
<path d="M0 0 C0.268125 0.61875 0.53625 1.2375 0.8125 1.875 C1.95556848 4.2995233 1.95556848 4.2995233 5 6 C3.68 6 2.36 6 1 6 C1.165 7.2375 1.33 8.475 1.5 9.75 C1.87709444 12.57820832 2 15.11564062 2 18 C-0.53835868 15.41596392 -0.99485632 14.23931642 -1.07421875 10.546875 C-0.94660156 9.29390625 -0.81898437 8.0409375 -0.6875 6.75 C-0.56761719 5.48671875 -0.44773438 4.2234375 -0.32421875 2.921875 C-0.21722656 1.95765625 -0.11023437 0.9934375 0 0 Z " fill="#A78473" transform="translate(42,35)"/>
<path d="M0 0 C3.39914975 1.13304992 4.05254451 2.12518475 6 5 C5.01 5 4.02 5 3 5 C3 7.64 3 10.28 3 13 C0.62054735 8.24109471 -0.10095578 5.45161235 0 0 Z " fill="#C0967C" transform="translate(54,89)"/>
<path d="M0 0 C4.29 0 8.58 0 13 0 C12.67 0.66 12.34 1.32 12 2 C6.50183506 3.17174007 6.50183506 3.17174007 4 3 C2.68 2.01 1.36 1.02 0 0 Z " fill="#D9C9BF" transform="translate(56,59)"/>
<path d="M0 0 C0.33 0.99 0.66 1.98 1 3 C-2.63 3 -6.26 3 -10 3 C-10 2.34 -10 1.68 -10 1 C-6.59437148 0.22157062 -3.49234244 -0.09978121 0 0 Z " fill="#553E36" transform="translate(55,31)"/>
<path d="M0 0 C1.485 0.99 1.485 0.99 3 2 C3 2.66 3 3.32 3 4 C3.99 4 4.98 4 6 4 C5.67 4.99 5.34 5.98 5 7 C3.35 7 1.7 7 0 7 C0 4.69 0 2.38 0 0 Z " fill="#D4B19E" transform="translate(57,95)"/>
<path d="M0 0 C0 3.71594733 -0.61835808 5.15739513 -3 8 C-6.6875 8.3125 -6.6875 8.3125 -10 8 C-10.33 7.34 -10.66 6.68 -11 6 C-9.741875 5.7525 -8.48375 5.505 -7.1875 5.25 C-4.16442273 4.51162006 -3.1940517 4.20617994 -1 1.875 C-0.67 1.25625 -0.34 0.6375 0 0 Z " fill="#D1A692" transform="translate(70,67)"/>
<path d="M0 0 C1 2 1 2 -0.0625 5.5 C-1.46306098 8.64798987 -1.82603484 8.92154512 -5.1875 10.4375 C-6.115625 10.623125 -7.04375 10.80875 -8 11 C-7.75 9.125 -7.75 9.125 -7 7 C-5.66666667 6.33333333 -4.33333333 5.66666667 -3 5 C-1.24677063 2.46811352 -1.24677063 2.46811352 0 0 Z " fill="#997763" transform="translate(80,60)"/>
<path d="M0 0 C0.9075 0.763125 1.815 1.52625 2.75 2.3125 C5.114556 4.28483107 7.51305942 6.18262034 10 8 C9.67 8.99 9.34 9.98 9 11 C4.125 7.25 4.125 7.25 3 5 C2.34 5 1.68 5 1 5 C0.67 3.35 0.34 1.7 0 0 Z " fill="#957360" transform="translate(45,62)"/>
<path d="M0 0 C1.98567708 0.09765625 3.97135417 0.1953125 5.95703125 0.29296875 C5.62703125 1.28296875 5.29703125 2.27296875 4.95703125 3.29296875 C1.65703125 3.29296875 -1.64296875 3.29296875 -5.04296875 3.29296875 C-2.04296875 0.29296875 -2.04296875 0.29296875 0 0 Z " fill="#624337" transform="translate(52.04296875,35.70703125)"/>
<path d="M0 0 C0.80050781 0.03480469 1.60101563 0.06960938 2.42578125 0.10546875 C3.63814453 0.14607422 3.63814453 0.14607422 4.875 0.1875 C5.48988281 0.22230469 6.10476562 0.25710938 6.73828125 0.29296875 C5.74828125 0.62296875 4.75828125 0.95296875 3.73828125 1.29296875 C3.73828125 1.95296875 3.73828125 2.61296875 3.73828125 3.29296875 C0.76828125 3.29296875 -2.20171875 3.29296875 -5.26171875 3.29296875 C-2.26171875 0.29296875 -2.26171875 0.29296875 0 0 Z " fill="#544A44" transform="translate(55.26171875,2.70703125)"/>
<path d="M0 0 C0.33 0 0.66 0 1 0 C1 2.97 1 5.94 1 9 C0.01 9.495 0.01 9.495 -1 10 C-2.13350534 12.01669827 -2.13350534 12.01669827 -3 14 C-4.03864166 10.88407501 -4.09036928 9.9737344 -3 7 C-2.34 6.67 -1.68 6.34 -1 6 C-0.34227572 2.97065509 -0.34227572 2.97065509 0 0 Z " fill="#323439" transform="translate(10,111)"/>
<path d="M0 0 C2 1 2 1 2.6328125 2.84765625 C2.79523437 3.57855469 2.95765625 4.30945313 3.125 5.0625 C3.29257812 5.79597656 3.46015625 6.52945313 3.6328125 7.28515625 C3.75398438 7.85105469 3.87515625 8.41695312 4 9 C2.68 9 1.36 9 0 9 C0 6.03 0 3.06 0 0 Z " fill="#B78F78" transform="translate(51,94)"/>
<path d="M0 0 C1.98 0.99 1.98 0.99 4 2 C4 4.31 4 6.62 4 9 C3.34 9 2.68 9 2 9 C0.14223235 5.86501708 -0.20140476 3.62528568 0 0 Z " fill="#CC9C81" transform="translate(48,56)"/>
<path d="M0 0 C0.66 0 1.32 0 2 0 C2 2.97 2 5.94 2 9 C1.01 9 0.02 9 -1 9 C-0.67 6.03 -0.34 3.06 0 0 Z " fill="#C29277" transform="translate(78,21)"/>
<path d="M0 0 C2.31 0 4.62 0 7 0 C7 0.99 7 1.98 7 3 C5.02 3.66 3.04 4.32 1 5 C0.67 3.35 0.34 1.7 0 0 Z " fill="#B9947E" transform="translate(61,97)"/>
<path d="M0 0 C0.99 0 1.98 0 3 0 C1.515 5.445 1.515 5.445 0 11 C-0.33 11 -0.66 11 -1 11 C-1.02688151 9.35425434 -1.04634123 7.70838587 -1.0625 6.0625 C-1.07410156 5.14597656 -1.08570313 4.22945313 -1.09765625 3.28515625 C-1 1 -1 1 0 0 Z " fill="#7E5C46" transform="translate(46,88)"/>
<path d="M0 0 C0.6875 2.0625 0.6875 2.0625 1 4 C-1.97 3.505 -1.97 3.505 -5 3 C-5 2.34 -5 1.68 -5 1 C-5.66 0.67 -6.32 0.34 -7 0 C-3.98968256 -0.93423645 -3.13349732 -1.04449911 0 0 Z " fill="#BD8771" transform="translate(75,54)"/>
<path d="M0 0 C3.66881155 0.70554068 6.70450534 2.27735506 10 4 C7.83032311 4.95465783 6.43671207 5.14401212 4.17578125 4.3984375 C2.4315257 3.64129615 0.71372869 2.82390802 -1 2 C-0.67 1.34 -0.34 0.68 0 0 Z " fill="#5A524C" transform="translate(65,2)"/>
<path d="M0 0 C0.66 0 1.32 0 2 0 C3.1875 2.75 3.1875 2.75 4 6 C3.01 7.32 2.02 8.64 1 10 C0.67 6.7 0.34 3.4 0 0 Z " fill="#B48B71" transform="translate(52,84)"/>
<path d="M0 0 C4.875 1.875 4.875 1.875 6 3 C8.32817964 3.36760731 10.6618385 3.70241581 13 4 C13 4.33 13 4.66 13 5 C4.2404908 5.44539877 4.2404908 5.44539877 0 2 C0 1.34 0 0.68 0 0 Z " fill="#684D3B" transform="translate(53,73)"/>
<path d="M0 0 C0.66 0.33 1.32 0.66 2 1 C1.25 3.4375 1.25 3.4375 0 6 C-2.125 6.8125 -2.125 6.8125 -4 7 C-2.79618552 4.50638429 -1.54571278 2.31856917 0 0 Z " fill="#B18971" transform="translate(77,60)"/>
<path d="M0 0 C2.31 0.66 4.62 1.32 7 2 C7 3.32 7 4.64 7 6 C4.525 5.01 4.525 5.01 2 4 C2 3.34 2 2.68 2 2 C1.34 2 0.68 2 0 2 C0 1.34 0 0.68 0 0 Z " fill="#B67069" transform="translate(53,59)"/>
<path d="M0 0 C0 0.99 0 1.98 0 3 C-2.31 3 -4.62 3 -7 3 C-7.33 2.34 -7.66 1.68 -8 1 C-5.29120665 -0.35439668 -2.99066732 -0.06501451 0 0 Z " fill="#B68B79" transform="translate(79,33)"/>
<path d="M0 0 C2.05078125 0.03255208 4.1015625 0.06510417 6.15234375 0.09765625 C1.15234375 2.59765625 1.15234375 2.59765625 -3.84765625 5.09765625 C-2.72914438 0.14424653 -2.72914438 0.14424653 0 0 Z " fill="#D09F86" transform="translate(55.84765625,17.90234375)"/>
<path d="M0 0 C0.99 0 1.98 0 3 0 C2 3 2 3 0 4 C-1.70702735 4.06996014 -3.41668003 4.08440154 -5.125 4.0625 C-6.03507812 4.05347656 -6.94515625 4.04445313 -7.8828125 4.03515625 C-8.58148438 4.02355469 -9.28015625 4.01195313 -10 4 C-10 3.67 -10 3.34 -10 3 C-7.03 3 -4.06 3 -1 3 C-0.67 2.01 -0.34 1.02 0 0 Z " fill="#A98571" transform="translate(68,72)"/>
<path d="M0 0 C0.33 0.66 0.66 1.32 1 2 C-1.64 2.33 -4.28 2.66 -7 3 C-7.33 3.99 -7.66 4.98 -8 6 C-7.625 3.5625 -7.625 3.5625 -7 1 C-4.53721199 -0.231394 -2.7204945 -0.07159196 0 0 Z " fill="#CB9C8B" transform="translate(76,40)"/>
<path d="M0 0 C0.66 0.33 1.32 0.66 2 1 C-4.07439825 5.90153173 -4.07439825 5.90153173 -7.9375 6.3125 C-8.618125 6.209375 -9.29875 6.10625 -10 6 C-6.71739341 3.81159561 -3.49181927 1.84114107 0 0 Z " fill="#4A4B4D" transform="translate(45,84)"/>
<path d="M0 0 C0.66 0 1.32 0 2 0 C2.66 1.32 3.32 2.64 4 4 C0.98968256 4.93423645 0.13349732 5.04449911 -3 4 C-3 3.34 -3 2.68 -3 2 C-2.01 2 -1.02 2 0 2 C0 1.34 0 0.68 0 0 Z " fill="#463B36" transform="translate(62,2)"/>
<path d="M0 0 C4.75 0.75 4.75 0.75 7 3 C7 3.99 7 4.98 7 6 C6.01 5.67 5.02 5.34 4 5 C4.33 4.34 4.66 3.68 5 3 C2.525 2.01 2.525 2.01 0 1 C0 0.67 0 0.34 0 0 Z " fill="#322723" transform="translate(73,9)"/>
<path d="M0 0 C1.32 0.33 2.64 0.66 4 1 C4 2.65 4 4.3 4 6 C3.67 5.34 3.34 4.68 3 4 C2.01 4.33 1.02 4.66 0 5 C0 3.35 0 1.7 0 0 Z " fill="#955C4C" transform="translate(38,41)"/>
<path d="M0 0 C1 3 1 3 0 6 C-0.66 6 -1.32 6 -2 6 C-2.33 6.66 -2.66 7.32 -3 8 C-3.625 6.125 -3.625 6.125 -4 4 C-2.66666667 2.66666667 -1.33333333 1.33333333 0 0 Z " fill="#A17863" transform="translate(82,32)"/>
</svg>
